<?xml version="1.0" encoding="utf-8"?>
<!-- Generator: Adobe Illustrator 26.2.1, SVG Export Plug-In . SVG Version: 6.00 Build 0)  -->
<svg version="1.1" id="Layer_1" xmlns="http://www.w3.org/2000/svg" xmlns:xlink="http://www.w3.org/1999/xlink" x="0px" y="0px"
	 viewBox="0 0 200 200" style="enable-background:new 0 0 200 200;" xml:space="preserve">
<style type="text/css">
	.st0{fill:#1A1A1A;}
	.st1{fill:#6D6E71;}
	.st2{fill:none;stroke:#D2D3D4;stroke-width:0.5;}
	.st3{fill:#362E44;}
	.st4{fill:#131D44;}
	.st5{fill:#71C9BB;}
	.st6{fill:none;stroke:#DADBDC;stroke-width:0.25;stroke-miterlimit:10;stroke-dasharray:1.5272,1.5272;}
	.st7{fill:none;stroke:#DADBDC;stroke-width:0.25;stroke-miterlimit:10;stroke-dasharray:1.6827,1.6827;}
	.st8{fill:#BFC1C3;}
	.st9{fill:#231F20;}
	.st10{fill:#FFFFFF;}
	.st11{fill:#B6B6B6;}
	.st12{fill:#1F1F1F;}
	.st13{fill:#5FC4B2;}
</style>
<path class="st5" d="M186.1,63c-4.7-11.4-12.1-21.9-20.7-30.5c-8.6-8.6-19.5-15-30.9-19.7C123.6,8.3,111.4,6,98.7,6
	c-12.6,0-25.6,0.5-36.5,5c-11.4,4.7-20.9,13.7-29.4,22.2c-8.6,8.6-18.5,17.6-23.2,29C5,73.2,6.5,86.6,6.5,99.2
	c0,12.6,0.9,25,5.5,35.9c4.7,11.4,14.3,19.4,22.9,28c8.6,8.6,16.3,18.8,27.7,23.5c11,4.5,23.6,7.6,36.2,7.6s25-3.7,35.9-8.3
	c11.4-4.7,21.6-12.1,30.2-20.6c8.6-8.6,15.5-19,20.2-30.4c4.5-11,9.8-23.2,9.8-35.8S190.7,74,186.1,63z M125.2,152.9l-20-3l5.7-38.7
	l-41.8,32.2l-12.3-16.1l36.7-28.2L56.8,70.9l12.3-16.1l41.8,32.2l-5.7-38.7l20-3l7.9,53.7L125.2,152.9z"/>
</svg>
